<svg width="134" height="56" viewBox="0 0 134 56" fill="none" xmlns="http://www.w3.org/2000/svg">
<path d="M94.2554 6.91026C94.2807 7.15145 94.2751 7.40385 94.2722 7.64223C94.2638 7.62821 94.2526 7.61419 94.2442 7.60017C94.1627 7.47116 94.2132 7.0589 94.2554 6.91026Z" fill="#1C001F" fill-opacity="0.973"/>
<mask id="mask0_1_80" style="mask-type:luminance" maskUnits="userSpaceOnUse" x="82" y="5" width="28" height="15">
<path d="M82.7059 5.38461H109.428V19.7436H82.7059V5.38461Z" fill="white"/>
</mask>
<g mask="url(#mask0_1_80)">
<path d="M95.6621 5.59215C95.8938 5.55569 96.1227 5.53045 96.3544 5.58654C96.8429 5.70152 97.2756 5.95393 97.5492 6.38862C97.8312 6.84014 97.8982 7.38421 97.7753 7.89744C97.7446 8.02644 97.686 8.14984 97.619 8.26482C97.3761 8.6855 97.0272 8.83694 96.6559 9.11458C96.6168 9.13982 96.5303 9.19591 96.5079 9.23518C96.4716 9.30248 96.4968 10.3261 96.5051 10.4635C97.2784 10.4299 98.0406 10.4327 98.6491 10.988C99.1405 11.4395 99.562 11.9583 100.034 12.4295C100.293 12.6903 100.559 12.9455 100.832 13.1895C101.106 13.4363 101.385 13.6747 101.673 13.9046C101.957 14.1346 102.25 14.3562 102.549 14.5721C102.848 14.7853 103.152 14.99 103.462 15.1863C103.646 15.3013 103.828 15.4247 104.018 15.5312C104.221 15.6434 104.436 15.7444 104.646 15.851C105.109 16.0837 105.581 16.3053 106.058 16.5156L107.373 17.0681C107.878 17.2869 108.453 17.5 108.869 17.8702C109.188 18.1534 109.305 18.4283 109.428 18.8293V19.0929C109.347 19.2528 109.266 19.4042 109.082 19.4631C108.945 19.508 108.786 19.5024 108.649 19.4631C108.501 19.4239 108.367 19.3482 108.23 19.2837L107.569 18.9752C106.826 18.6302 106.075 18.3049 105.355 17.9151C105.028 17.7384 104.699 17.5729 104.372 17.399C103.861 17.127 103.359 16.8409 102.856 16.5549C101.943 16.0276 101.042 15.4752 100.157 14.9002C99.5341 14.4992 98.9283 14.0785 98.3225 13.655C97.9233 13.3746 97.5185 13.0381 97.0691 12.8446C96.4912 12.595 96.0306 12.5361 95.422 12.7127C94.8553 12.8782 94.4198 13.2288 93.9452 13.5625L92.7001 14.4347C92.5354 14.5469 92.3623 14.6478 92.1948 14.76C91.8179 15.0096 91.4355 15.2564 91.053 15.4948C90.0285 16.1342 88.9844 16.74 87.9208 17.3121C86.8571 17.8842 85.774 18.4227 84.6768 18.9219C84.4479 19.0256 84.2218 19.135 83.9929 19.2416C83.7221 19.3678 83.3033 19.609 82.9963 19.4519C82.8623 19.3818 82.7757 19.2388 82.7059 19.1098V18.7704C82.7534 18.7059 82.7701 18.5797 82.7981 18.5012C82.8958 18.2264 83.1051 18.002 83.3173 17.8113C83.6998 17.4635 84.7578 17.0625 85.2631 16.855C85.5758 16.726 85.8856 16.5913 86.1955 16.4567C87.2173 16.0024 88.2781 15.492 89.1938 14.8442C89.8666 14.3674 90.531 13.8682 91.1479 13.3157C91.2484 13.226 91.3406 13.125 91.4411 13.0325C91.5778 12.9062 91.723 12.7969 91.857 12.6651C92.0636 12.4575 92.2813 12.2528 92.4796 12.0369C92.5577 11.9499 92.6303 11.8546 92.7085 11.7648C92.9206 11.5321 93.211 11.232 93.4483 11.0244C94.0541 10.4888 94.7436 10.4159 95.5169 10.4635C95.5197 10.2196 95.5197 9.97837 95.5197 9.73438C95.5169 9.54647 95.5057 9.35297 95.5308 9.16787C95.5895 8.71354 95.8351 8.45833 96.212 8.22276C96.3321 8.14984 96.4605 8.08253 96.5693 7.99559C96.7341 7.86939 96.8513 7.69551 96.8736 7.48518C96.9016 7.2496 96.829 7.02524 96.6782 6.84295C96.5303 6.66066 96.3097 6.55128 96.0752 6.53165C95.676 6.498 95.2991 6.78966 95.1847 7.16266C95.1428 7.29728 95.154 7.44591 95.1065 7.57772C95.1009 7.59455 95.0926 7.61418 95.0842 7.63101C95.0758 7.64784 95.0646 7.66466 95.0535 7.67869C95.0423 7.69551 95.0311 7.70954 95.0172 7.72356C95.006 7.73758 94.9921 7.7516 94.9781 7.76282C94.8329 7.8778 94.6654 7.86378 94.4951 7.84976C94.4142 7.78245 94.336 7.72917 94.2718 7.64223C94.2746 7.40385 94.2802 7.15144 94.2551 6.91026C94.2774 6.76442 94.3472 6.61579 94.4226 6.48958C94.7157 5.98758 95.1065 5.73518 95.6621 5.59215ZM95.6621 5.59215C95.7961 5.62019 96.1981 5.67348 96.3125 5.62019C96.3265 5.61178 96.3404 5.59776 96.3544 5.58654C96.1227 5.53045 95.8938 5.55569 95.6621 5.59215Z" fill="#1C001F"/>
</g>
<path d="M95.662 5.59215C95.8938 5.55569 96.1227 5.53045 96.3544 5.58654C96.3404 5.59776 96.3265 5.61178 96.3125 5.62019C96.198 5.67348 95.796 5.62019 95.662 5.59215Z" fill="#1C001F" fill-opacity="0.929"/>
<path d="M44.2687 18.6194V19.4383C43.3893 19.4692 42.7305 19.5729 42.2922 19.7524C41.8511 19.9319 41.558 20.2628 41.41 20.7396C41.2592 21.2192 41.1867 21.9708 41.1867 22.9944V43.4672C41.1867 44.4544 41.2592 45.2003 41.41 45.6995C41.558 46.1931 41.8511 46.5241 42.2922 46.6867C42.7305 46.8522 43.3893 46.9616 44.2687 47.012V47.8422C43.501 47.7917 42.5322 47.758 41.3653 47.7412C40.204 47.7272 39.0203 47.7188 37.8143 47.7188C36.5022 47.7188 35.2711 47.7272 34.1182 47.7412C32.9624 47.758 32.0328 47.7917 31.3265 47.8422V47.012C32.2561 46.9616 32.9596 46.8522 33.437 46.6867C33.92 46.5241 34.2438 46.1931 34.4085 45.6995C34.5704 45.2003 34.6542 44.4544 34.6542 43.4672V21.1322H34.9445L24.7493 47.887H24.0905L12.9908 21.3005V41.0665C12.9908 42.5866 13.0718 43.7532 13.2365 44.5665C13.4068 45.3742 13.7725 45.9519 14.3308 46.2941C14.8892 46.639 15.7713 46.8774 16.9773 47.012V47.8422C16.4553 47.7917 15.7713 47.758 14.9227 47.7412C14.074 47.7272 13.2812 47.7188 12.5442 47.7188C11.9105 47.7188 11.2656 47.7272 10.6123 47.7412C9.95628 47.758 9.40912 47.7917 8.97083 47.8422V47.012C9.84741 46.8774 10.5035 46.6475 10.9362 46.3165C11.3745 45.9884 11.6676 45.4471 11.8183 44.6899C11.9747 43.9271 12.0528 42.8894 12.0528 41.5713V22.9944C12.0528 21.9708 11.9747 21.2192 11.8183 20.7396C11.6676 20.2628 11.3661 19.9319 10.9138 19.7524C10.4672 19.5729 9.81949 19.4692 8.97083 19.4383V18.6194C9.40912 18.6419 9.95628 18.6699 10.6123 18.6979C11.2656 18.7288 11.9105 18.7428 12.5442 18.7428C13.7195 18.7428 14.878 18.7288 16.017 18.6979C17.156 18.6699 18.161 18.6419 19.032 18.6194L27.6638 39.5409L26.6365 40.4944L34.8998 18.7428C35.3605 18.7428 35.8378 18.7428 36.3292 18.7428C36.8261 18.7428 37.323 18.7428 37.8143 18.7428C39.0203 18.7428 40.204 18.7288 41.3653 18.6979C42.5322 18.6699 43.501 18.6419 44.2687 18.6194Z" fill="black"/>
<path d="M53.7225 18.0361C56.6259 18.0361 59.1635 18.6306 61.3382 19.8197C63.5185 21.0032 65.213 22.6999 66.419 24.9127C67.625 27.1282 68.228 29.8149 68.228 32.9784C68.228 36.0605 67.6083 38.7612 66.3744 41.0777C65.146 43.3886 63.4264 45.1919 61.2154 46.4848C59.0099 47.7805 56.4974 48.4255 53.6779 48.4255C50.7745 48.4255 48.2313 47.8366 46.051 46.6531C43.8763 45.464 42.1874 43.756 40.9814 41.5265C39.7754 39.2997 39.1724 36.613 39.1724 33.472C39.1724 30.3926 39.7921 27.6947 41.0372 25.3838C42.2879 23.0729 43.9992 21.2725 46.1739 19.9768C48.3542 18.6839 50.8694 18.0361 53.7225 18.0361ZM53.555 18.7765C52.0196 18.7765 50.6852 19.3991 49.5462 20.6386C48.4128 21.8726 47.539 23.5777 46.922 25.754C46.3023 27.9303 45.9952 30.4515 45.9952 33.3149C45.9952 36.2316 46.3442 38.7725 47.0449 40.9319C47.7428 43.0858 48.6892 44.7516 49.8812 45.9239C51.0704 47.0906 52.3937 47.6739 53.8454 47.6739C55.378 47.6739 56.7152 47.0569 57.8542 45.8229C58.9932 44.5833 59.867 42.8698 60.4784 40.6851C61.0953 38.4948 61.4052 35.982 61.4052 33.1466C61.4052 30.2019 61.0534 27.6555 60.3555 25.5072C59.6548 23.3618 58.7084 21.7043 57.5192 20.5377C56.3272 19.3654 55.0067 18.7765 53.555 18.7765Z" fill="#A6A6A6"/>
<path d="M63.1771 18.6194C63.8611 18.6419 64.7851 18.6699 65.9465 18.6979C67.1134 18.7288 68.2719 18.7428 69.4193 18.7428C70.737 18.7428 72.01 18.7288 73.2383 18.6979C74.4722 18.6699 75.3516 18.6531 75.8736 18.6531C78.4196 18.6531 80.5329 18.9391 82.2163 19.5056C83.9052 20.0665 85.1671 20.8854 86.0018 21.9624C86.8421 23.0337 87.2636 24.3265 87.2636 25.8438C87.2636 26.7805 87.0682 27.7228 86.683 28.6707C86.3033 29.6214 85.65 30.5048 84.7288 31.3181C83.8131 32.1258 82.5569 32.7737 80.9656 33.2588C79.38 33.7384 77.3811 33.9768 74.9691 33.9768H71.0273V33.1467H74.556C76.1779 33.1467 77.4062 32.8382 78.241 32.2156C79.0729 31.5958 79.648 30.7685 79.9606 29.7364C80.2789 28.7044 80.4408 27.5573 80.4408 26.2925C80.4408 24.1162 80.0555 22.4307 79.2906 21.2332C78.5229 20.0385 77.2052 19.4383 75.3376 19.4383C74.2712 19.4383 73.5789 19.6739 73.2606 20.1451C72.948 20.6106 72.7916 21.5585 72.7916 22.9944V43.4672C72.7916 44.4544 72.8642 45.2003 73.015 45.6995C73.1713 46.1931 73.4644 46.5241 73.8971 46.6867C74.3354 46.8522 74.9942 46.9616 75.8736 47.012V47.8422C75.1366 47.7917 74.2042 47.758 73.082 47.7412C71.9569 47.7272 70.8207 47.7188 69.6761 47.7188C68.3585 47.7188 67.1134 47.7272 65.9465 47.7412C64.7851 47.758 63.8611 47.7917 63.1771 47.8422V47.012C64.0537 46.9616 64.7125 46.8522 65.1536 46.6867C65.5919 46.5241 65.885 46.1931 66.0358 45.6995C66.1837 45.2003 66.2591 44.4544 66.2591 43.4672V22.9944C66.2591 21.9708 66.1837 21.2192 66.0358 20.7396C65.885 20.2628 65.5835 19.9319 65.1313 19.7524C64.6762 19.5729 64.0258 19.4692 63.1771 19.4383V18.6194ZM70.9491 33.2701C72.1244 33.3009 73.1434 33.357 74.0088 33.4383C74.8714 33.5225 75.6307 33.5954 76.2868 33.6627C76.94 33.73 77.5291 33.7805 78.0511 33.8085C80.5441 34.0273 82.3866 34.5601 83.5786 35.4127C84.7679 36.2652 85.544 37.5497 85.9013 39.2604L86.8505 43.512C87.0961 44.6114 87.3557 45.3826 87.6321 45.8229C87.9057 46.2661 88.3021 46.4848 88.8158 46.4848C89.1731 46.4568 89.4662 46.367 89.698 46.2156C89.9352 46.0585 90.1921 45.8314 90.4685 45.5313L91.038 46.0249C90.301 46.8774 89.5081 47.4916 88.6595 47.8646C87.8108 48.2376 86.7835 48.4255 85.5775 48.4255C84.0951 48.4255 82.8751 48.1058 81.9148 47.472C80.9545 46.8382 80.3235 45.6659 80.0276 43.9608L79.2906 39.8326C79.0952 38.6827 78.8607 37.6731 78.5871 36.8037C78.3107 35.9371 77.9339 35.25 77.4593 34.7396C76.9819 34.232 76.3147 33.9768 75.4605 33.9768H71.0273L70.9491 33.2701Z" fill="black"/>
<path d="M109.574 18.6194V19.4383C108.703 19.5505 108.038 19.7805 107.586 20.1226C107.131 20.4676 106.832 21.0144 106.693 21.7604C106.559 22.5008 106.492 23.5441 106.492 24.8902V35.8277C106.492 37.617 106.369 39.2548 106.123 40.7412C105.878 42.2304 105.436 43.5092 104.806 44.5777C104.096 45.7669 103.058 46.7064 101.69 47.3935C100.319 48.0806 98.5774 48.4255 96.4641 48.4255C95.205 48.4255 93.9181 48.2797 92.6004 47.988C91.2883 47.6963 90.113 47.1551 89.0717 46.3614C88.1924 45.6154 87.5196 44.7741 87.0506 43.8374C86.5872 42.9035 86.2745 41.7957 86.1126 40.5169C85.9479 39.238 85.8669 37.718 85.8669 35.9511V22.9944C85.8669 21.9708 85.7887 21.2192 85.6324 20.7396C85.4817 20.2628 85.1885 19.9319 84.7502 19.7524C84.3175 19.5729 83.6615 19.4692 82.7849 19.4383V18.6194C83.4689 18.6419 84.3929 18.6699 85.5542 18.6979C86.7212 18.7288 87.9355 18.7428 89.1946 18.7428C90.4508 18.7428 91.6624 18.7288 92.8237 18.6979C93.9907 18.6699 94.9594 18.6419 95.7271 18.6194V19.4383C94.7947 19.4692 94.0884 19.5729 93.6054 19.7524C93.128 19.9319 92.807 20.2628 92.6451 20.7396C92.4804 21.2192 92.3994 21.9708 92.3994 22.9944V38.5537C92.3994 39.9307 92.4887 41.1507 92.6674 42.2108C92.8461 43.2652 93.1476 44.1459 93.5719 44.847C93.9962 45.5509 94.5769 46.081 95.3139 46.4399C96.0565 46.7989 96.9777 46.9784 98.0721 46.9784C99.9844 46.9784 101.481 46.5269 102.561 45.621C103.647 44.7096 104.418 43.4503 104.873 41.8406C105.325 40.2252 105.554 38.3742 105.554 36.2877V25.3838C105.554 23.875 105.456 22.714 105.263 21.9063C105.068 21.093 104.688 20.504 104.124 20.1451C103.566 19.7861 102.712 19.5505 101.567 19.4383V18.6194C102.086 18.6419 102.773 18.6699 103.622 18.6979C104.471 18.7288 105.263 18.7428 106 18.7428C106.654 18.7428 107.301 18.7288 107.943 18.6979C108.591 18.6699 109.133 18.6419 109.574 18.6194Z" fill="#A6A6A6"/>
<path d="M113.769 18.081C115.383 18.081 116.63 18.2548 117.51 18.597C118.386 18.9419 119.14 19.3037 119.766 19.6851C120.101 19.8814 120.369 20.0273 120.57 20.1226C120.776 20.2208 120.977 20.2685 121.173 20.2685C121.441 20.2685 121.633 20.1198 121.753 19.8197C121.879 19.5141 121.982 19.0569 122.066 18.4512H123.015C122.984 18.9756 122.948 19.6038 122.903 20.3358C122.864 21.0621 122.839 22.0157 122.825 23.1963C122.817 24.3798 122.814 25.9335 122.814 27.863H121.865C121.753 26.4355 121.421 25.0473 120.871 23.7012C120.327 22.3494 119.556 21.2388 118.56 20.3694C117.56 19.5028 116.332 19.0681 114.875 19.0681C113.562 19.0681 112.485 19.4439 111.636 20.1899C110.788 20.9303 110.363 21.9596 110.363 23.2749C110.363 24.3826 110.634 25.3278 111.178 26.113C111.728 26.8927 112.53 27.6555 113.579 28.4015C114.634 29.1419 115.919 30.0365 117.432 31.0826C118.741 31.9351 119.916 32.7877 120.96 33.6403C122.002 34.4928 122.836 35.4576 123.462 36.5345C124.093 37.6058 124.411 38.8846 124.411 40.371C124.411 42.1883 123.936 43.6887 122.993 44.8694C122.046 46.0529 120.807 46.9419 119.274 47.5393C117.739 48.1282 116.058 48.4255 114.227 48.4255C112.521 48.4255 111.162 48.2572 110.151 47.9207C109.138 47.5926 108.289 47.2476 107.605 46.8887C107.002 46.5072 106.536 46.3165 106.209 46.3165C105.933 46.3165 105.732 46.4708 105.606 46.7765C105.486 47.0766 105.386 47.5281 105.305 48.1338H104.356C104.414 47.4692 104.448 46.698 104.456 45.823C104.47 44.9423 104.484 43.7925 104.501 42.379C104.515 40.96 104.523 39.1595 104.523 36.9832H105.472C105.575 38.8005 105.88 40.5028 106.388 42.0874C106.902 43.6663 107.683 44.9367 108.733 45.9015C109.788 46.8662 111.195 47.3486 112.954 47.3486C113.906 47.3486 114.757 47.1775 115.511 46.8326C116.27 46.4904 116.879 45.9744 117.342 45.2845C117.811 44.5974 118.046 43.7448 118.046 42.7268C118.046 41.5685 117.778 40.5617 117.242 39.7092C116.706 38.8566 115.98 38.0601 115.064 37.3197C114.149 36.5738 113.088 35.8137 111.882 35.0425C110.592 34.1899 109.386 33.3374 108.264 32.4848C107.139 31.6322 106.243 30.6563 105.573 29.5569C104.903 28.4576 104.568 27.1507 104.568 25.6306C104.568 23.8975 104.998 22.4728 105.863 21.3566C106.726 20.2432 107.862 19.4215 109.269 18.8887C110.681 18.3502 112.183 18.081 113.769 18.081Z" fill="black"/>
</svg>
